# xmcd
#
# Track frame offsets:
#	150
#	16350
#	35326
#	55276
#	71447
#	90317
#
# Disc length: 1477 seconds
#
# Revision: 1
# Processed by: cddbd v1.5.1PL0 Copyright (c) Steve Scherf et al.
# Submitted via: CDex 1.50Beta5
#
DISCID=4105c306
DTITLE=ZZ [Zi:,Zi(:)] - A to Z ~ONE PIECE Edition~ (by sj)
DYEAR=2003
DGENRE=Soundtrack
TTITLE0=A to Z ~ONE PIECE Edition~
TTITLE1=I'll be back again
TTITLE2=A to Z
TTITLE3=A to Z ~ONE PIECE Edition~［Back Track］
TTITLE4=I'll be back again［Back Track］
TTITLE5=A to Z ［Back Track］
EXTD=
EXTT0=
EXTT1=
EXTT2=
EXTT3=
EXTT4=
EXTT5=
PLAYORDER=
